HIERARCHY
ROOT Hips
{
	OFFSET	0.00	0.00	0.00
	CHANNELS 6 Xposition Yposition Zposition Zrotation Xrotation Yrotation
	JOINT LeftUpLeg
	{
		OFFSET	 0.126116	-0.014019	-0.065224
		CHANNELS 3 Zrotation Xrotation Yrotation
		JOINT LeftLeg
		{
			OFFSET	 0.000000	 0.000000	 0.569914
			CHANNELS 3 Zrotation Xrotation Yrotation
			JOINT LeftFoot
			{
				OFFSET	 0.000000	 0.000000	 0.544423
				CHANNELS 3 Zrotation Xrotation Yrotation
				JOINT LeftToeBase
				{
					OFFSET	 0.000000	 0.000000	 0.207117
					CHANNELS 3 Zrotation Xrotation Yrotation
					End Site
					{
						OFFSET	 0.000000	 0.000000	 0.207117
					}
				}
			}
		}
	}
	JOINT RightUpLeg
	{
		OFFSET	-0.124023	-0.008373	-0.065224
		CHANNELS 3 Zrotation Xrotation Yrotation
		JOINT RightLeg
		{
			OFFSET	 0.000000	 0.000000	 0.570047
			CHANNELS 3 Zrotation Xrotation Yrotation
			JOINT RightFoot
			{
				OFFSET	 0.000000	 0.000000	 0.544354
				CHANNELS 3 Zrotation Xrotation Yrotation
				JOINT RightToeBase
				{
					OFFSET	 0.000000	 0.000000	 0.207540
					CHANNELS 3 Zrotation Xrotation Yrotation
					End Site
					{
						OFFSET	 0.000000	 0.000000	 0.207540
					}
				}
			}
		}
	}
	JOINT Spine
	{
		OFFSET	 0.000184	-0.007763	 0.117403
		CHANNELS 3 Zrotation Xrotation Yrotation
		JOINT Spine1
		{
			OFFSET	 0.000000	 0.000000	 0.137269
			CHANNELS 3 Zrotation Xrotation Yrotation
			JOINT Spine2
			{
				OFFSET	 0.000000	 0.000000	 0.156879
				CHANNELS 3 Zrotation Xrotation Yrotation
				JOINT LeftShoulder
				{
					OFFSET	 0.080501	-0.002496	 0.160144
					CHANNELS 3 Zrotation Xrotation Yrotation
					JOINT LeftArm
					{
						OFFSET	 0.000000	 0.000000	 0.164363
						CHANNELS 3 Zrotation Xrotation Yrotation
						JOINT LeftForeArm
						{
							OFFSET	 0.000000	 0.000000	 0.364576
							CHANNELS 3 Zrotation Xrotation Yrotation
							JOINT LeftHand
							{
								OFFSET	 0.000000	 0.000000	 0.360812
								CHANNELS 3 Zrotation Xrotation Yrotation
								JOINT LeftHandIndex1
								{
									OFFSET	 0.000000	 0.000000	 0.086006
									CHANNELS 3 Zrotation Xrotation Yrotation
									JOINT LeftHandIndex2
									{
										OFFSET	 0.000000	 0.000000	 0.047236
										CHANNELS 3 Zrotation Xrotation Yrotation
										JOINT LeftHandIndex3
										{
											OFFSET	-0.004284	-0.000551	 0.038166
											CHANNELS 3 Zrotation Xrotation Yrotation
											End Site
											{
												OFFSET	-0.004284	-0.000551	 0.038166
											}
										}
									}
								}
							}
						}
					}
				}
				JOINT Neck
				{
					OFFSET	 0.000000	 0.000000	 0.176489
					CHANNELS 3 Zrotation Xrotation Yrotation
					JOINT Head
					{
						OFFSET	 0.000000	-0.001747	 0.077940
						CHANNELS 3 Zrotation Xrotation Yrotation
						End Site
						{
							OFFSET	 0.000000	-0.001747	 0.077940
						}
					}
				}
				JOINT RightShoulder
				{
					OFFSET	-0.080363	 0.000306	 0.159706
					CHANNELS 3 Zrotation Xrotation Yrotation
					JOINT RightArm
					{
						OFFSET	 0.000000	 0.000000	 0.164196
						CHANNELS 3 Zrotation Xrotation Yrotation
						JOINT RightForeArm
						{
							OFFSET	 0.000000	 0.000000	 0.365611
							CHANNELS 3 Zrotation Xrotation Yrotation
							JOINT RightHand
							{
								OFFSET	 0.000000	 0.000000	 0.360648
								CHANNELS 3 Zrotation Xrotation Yrotation
								JOINT RightHandIndex1
								{
									OFFSET	 0.000000	 0.000000	 0.069977
									CHANNELS 3 Zrotation Xrotation Yrotation
									JOINT RightHandIndex2
									{
										OFFSET	 0.000000	 0.000000	 0.052305
										CHANNELS 3 Zrotation Xrotation Yrotation
										JOINT RightHandIndex3
										{
											OFFSET	 0.009002	-0.000782	 0.042196
											CHANNELS 3 Zrotation Xrotation Yrotation
											End Site
											{
												OFFSET	 0.009002	-0.000782	 0.042196
											}
										}
									}
								}
							}
						}
					}
				}
			}
		}
	}
}
MOTION
Frames:    5
Frame Time: 0.03333334
 0.000529	 0.043925	 1.273567	-0.083618	 2.504861	 0.724799	 10.748490	-6.980692	 177.324600	 2.292604	-14.730920	 0.689364	-0.429700	 71.582920	 0.297644	-2.385833	 28.452750	 0.000004	-3.260945	-6.080983	-178.060200	-0.775984	-12.542700	 0.950842	 5.763775	 70.247910	 0.523024	 2.384659	 28.388700	-0.000001	 1.871798	 7.239237	-0.388980	 1.485819	-5.690188	 0.348641	-3.880990	 9.292710	 0.753624	-91.162410	 69.738650	-177.810200	-6.910620	 1.198852	-21.922650	 25.727050	-0.126291	-0.617949	-8.310961	-9.319659	-4.103875	-2.027600	 6.559038	 9.033609	-5.188889	 0.308190	 3.541030	-5.234859	 0.342567	 0.430617	 4.384491	 17.915810	-6.726845	-9.058138	-13.610280	 1.731710	 89.005130	 68.615200	 177.346000	 10.103540	 8.905072	 15.417290	-27.656490	-2.995391	 8.320623	 5.327044	-9.394493	 6.090880	 1.803333	 3.979147	-15.098590	 4.898592	 3.004813	-9.310344	 5.224449	 0.395017	 2.014677
 0.000452	 0.045117	 1.272870	-0.073732	 2.715696	 0.752829	 10.806590	-7.542749	 177.334400	 2.253881	-15.275840	 0.704040	-0.152720	 71.760490	 0.042502	-2.385833	 28.452750	 0.000004	-3.363540	-6.631946	-178.130000	-0.758192	-13.081650	 0.995044	 5.718605	 70.456120	 0.569411	 2.384659	 28.388700	-0.000001	 1.546340	 7.471824	-0.406256	 1.480271	-6.350529	 0.351764	-3.861068	 10.220330	 0.813850	-91.107220	 69.364170	-177.684400	-6.516852	 1.095887	-22.593920	 25.425770	-0.123713	-0.676462	-7.752717	-9.624189	-4.189584	-2.027600	 6.559038	 9.033609	-5.188889	 0.308190	 3.541030	-5.234859	 0.342567	 0.430617	 4.500273	 18.894140	-7.037183	-9.027894	-14.232160	 1.688645	 88.929700	 68.100520	 177.195000	 9.894236	 8.910284	 15.540710	-27.508020	-3.310106	 9.293997	 4.756074	-9.507174	 5.917091	 1.803333	 3.979147	-15.098590	 4.898592	 3.004813	-9.310344	 5.224449	 0.395017	 2.014677
 0.000221	 0.048198	 1.271091	-0.041921	 3.236674	 0.823568	 10.918090	-8.910965	 177.357800	 2.201905	-16.562180	 0.746878	 0.499772	 72.192320	-0.599911	-2.385833	 28.452750	 0.000004	-3.606959	-7.965007	-178.308300	-0.720657	-14.344770	 1.098530	 5.555482	 70.927260	 0.748805	 2.384659	 28.388700	-0.000001	 0.831129	 7.968631	-0.443301	 1.474035	-7.733740	 0.352131	-3.854053	 12.161120	 0.948540	-90.994340	 68.607750	-177.442300	-5.663284	 1.201573	-24.159690	 24.726330	-0.114021	-0.801528	-6.619333	-10.365760	-4.446035	-2.027600	 6.559038	 9.033609	-5.188889	 0.308190	 3.541030	-5.234859	 0.342567	 0.430617	 4.695733	 20.948340	-7.680483	-8.922747	-15.578740	 1.595064	 88.761760	 66.961120	 176.882600	 9.296230	 9.220797	 16.078870	-27.129800	-3.805944	 10.974010	 3.521198	-9.802320	 5.567812	 1.803333	 3.979147	-15.098590	 4.898592	 3.004813	-9.310344	 5.224449	 0.395017	 2.014677
-0.000092	 0.051429	 1.269283	 0.004494	 3.785069	 0.896430	 10.903080	-10.278480	 177.369800	 2.147617	-17.775340	 0.806717	 1.113462	 72.633350	-1.277714	-2.385833	 28.452750	 0.000004	-3.843936	-9.289947	-178.498900	-0.694527	-15.522970	 1.193631	 5.297496	 71.346530	 1.046487	 2.384659	 28.388700	-0.000001	 0.257492	 8.352702	-0.472481	 1.487051	-8.827750	 0.338960	-3.928467	 13.615700	 1.075716	-90.923160	 68.109030	-177.303400	-4.972970	 1.718927	-25.524190	 24.062540	-0.104464	-0.915214	-5.836321	-11.169700	-4.778270	-2.027600	 6.559038	 9.033609	-5.188889	 0.308190	 3.541030	-5.234859	 0.342567	 0.430617	 4.717233	 22.472810	-8.120421	-8.772209	-16.670970	 1.522754	 88.624710	 65.997160	 176.655200	 8.607449	 9.769957	 16.750650	-26.689320	-4.024199	 11.964800	 2.517515	-10.164130	 5.343021	 1.803333	 3.979147	-15.098590	 4.898592	 3.004813	-9.310344	 5.224449	 0.395017	 2.014677
-0.000480	 0.055678	 1.266941	 0.059649	 4.441051	 0.981746	 11.036030	-11.937210	 177.417100	 2.240427	-19.213580	 0.880424	 1.915995	 73.123470	-2.168163	-2.385833	 28.452750	 0.000004	-4.128682	-10.892570	-178.734100	-0.661418	-16.924010	 1.308001	 4.963027	 71.816990	 1.433481	 2.384659	 28.388700	-0.000001	-0.443124	 8.815946	-0.510383	 1.499738	-9.869295	 0.315082	-4.007584	 15.227760	 1.224136	-90.836100	 67.514720	-177.139700	-4.168122	 2.465240	-27.350160	 23.273470	-0.091259	-1.054626	-4.939911	-12.071680	-5.193667	-2.027600	 6.559038	 9.033609	-5.188889	 0.308190	 3.541030	-5.234859	 0.342567	 0.430617	 4.759498	 24.291100	-8.643057	-8.578709	-17.966930	 1.444483	 88.456320	 64.848840	 176.388300	 7.714376	 10.630370	 17.963010	-26.204190	-4.097715	 12.645610	 1.341667	-10.554130	 5.092898	 1.803333	 3.979147	-15.098590	 4.898592	 3.004813	-9.310344	 5.224449	 0.395017	 2.014677
